<svg fill="#000000" xmlns="http://www.w3.org/2000/svg"  viewBox="0 0 100 100" width="30px" height="30px"><path d="M 36.052734 15.214844 C 35.256112 15.194935 34.468738 15.255769 33.701172 15.390625 C 29.095776 16.199757 25.1848 19.678757 24.068359 24.513672 L 22.304688 32.148438 A 1.0001 1.0001 0 0 0 24.115234 32.923828 C 29.071167 25.408557 37.071625 20.408546 45.998047 19.25 A 1.0001 1.0001 0 0 0 46.095703 17.283203 L 38.460938 15.521484 C 37.655227 15.335405 36.849357 15.234752 36.052734 15.214844 z M 35.998047 17.212891 C 36.662718 17.229665 37.335726 17.31308 38.009766 17.46875 L 41.533203 18.283203 C 35.168789 19.984812 29.520364 23.51508 25.201172 28.490234 L 26.015625 24.964844 C 26.949684 20.919758 30.197505 18.026071 34.037109 17.357422 C 34.677043 17.24598 35.333376 17.196116 35.998047 17.212891 z M 50 22 C 34.547862 22 22 34.547873 22 50 C 22 65.452127 34.547862 78 50 78 C 65.452138 78 78 65.452127 78 50 C 78 34.547873 65.452138 22 50 22 z M 67.652344 22.28125 A 1.0001 1.0001 0 0 0 67.076172 24.115234 C 74.591283 29.070093 79.590465 37.073423 80.75 46 A 1.0001 1.0001 0 0 0 82.716797 46.095703 L 84.478516 38.462891 A 1.0001 1.0001 0 0 0 84.478516 38.460938 C 85.966005 32.014473 81.931837 25.55891 75.486328 24.070312 L 67.851562 22.306641 A 1.0001 1.0001 0 0 0 67.652344 22.28125 z M 50 24 C 64.371259 24 76 35.628751 76 50 C 76 64.371249 64.371259 76 50 76 C 35.628741 76 24 64.371249 24 50 C 24 35.628751 35.628741 24 50 24 z M 71.511719 25.205078 L 75.035156 26.017578 C 80.427647 27.26298 83.77576 32.618233 82.53125 38.011719 L 81.716797 41.537109 C 80.015645 35.172312 76.486225 29.524573 71.511719 25.205078 z M 43.486328 30.748047 C 39.350112 30.748047 35.986328 34.111834 35.986328 38.248047 C 35.986328 42.38426 39.350112 45.748047 43.486328 45.748047 C 47.622544 45.748047 50.986328 42.38426 50.986328 38.248047 C 50.986328 34.111834 47.622544 30.748047 43.486328 30.748047 z M 43.486328 31.748047 C 47.082104 31.748047 49.986328 34.652273 49.986328 38.248047 C 49.986328 41.84382 47.082104 44.748047 43.486328 44.748047 C 39.890552 44.748047 36.986328 41.84382 36.986328 38.248047 C 36.986328 34.652273 39.890552 31.748047 43.486328 31.748047 z M 61.416016 35.994141 C 61.175263 36.005065 60.935773 36.026787 60.699219 36.060547 C 57.860573 36.465671 55.381163 38.489438 54.541016 41.419922 C 53.400484 45.395735 55.705779 49.555836 59.681641 50.695312 C 63.657347 51.834744 67.819502 49.530572 68.958984 45.554688 C 69.364522 44.141191 69.333857 42.701227 68.949219 41.386719 A 0.50005 0.50005 0 1 0 67.990234 41.667969 C 68.323631 42.80746 68.350523 44.048839 67.998047 45.277344 C 67.007529 48.733459 63.413325 50.724944 59.957031 49.734375 C 56.500893 48.743851 54.510485 45.151499 55.501953 41.695312 C 56.475757 38.298625 59.962458 36.317424 63.361328 37.189453 A 0.50005 0.50005 0 1 0 63.609375 36.220703 C 62.875664 36.032459 62.138274 35.961368 61.416016 35.994141 z M 65.503906 37.082031 A 0.50005 0.50005 0 0 0 65.25 38.005859 C 65.987751 38.47635 66.611775 39.087742 67.097656 39.791016 A 0.50005 0.50005 0 1 0 67.919922 39.222656 C 67.359803 38.41193 66.639358 37.707572 65.787109 37.164062 A 0.50005 0.50005 0 0 0 65.503906 37.082031 z M 50 46 C 48.708334 46 47.676923 46.502378 47.001953 47.261719 C 46.326984 48.02106 46 49.013889 46 50 C 46 50.986111 46.326984 51.97894 47.001953 52.738281 C 47.676923 53.497622 48.708334 54 50 54 C 51.291666 54 52.323077 53.497622 52.998047 52.738281 C 53.673016 51.97894 54 50.986111 54 50 C 54 49.013889 53.673016 48.02106 52.998047 47.261719 C 52.323077 46.502378 51.291666 46 50 46 z M 50 47 C 51.041666 47 51.760256 47.372622 52.251953 47.925781 C 52.74365 48.47894 53 49.236111 53 50 C 53 50.763889 52.74365 51.52106 52.251953 52.074219 C 51.760256 52.627378 51.041666 53 50 53 C 48.958334 53 48.239744 52.627378 47.748047 52.074219 C 47.25635 51.52106 47 50.763889 47 50 C 47 49.236111 47.25635 48.47894 47.748047 47.925781 C 48.239744 47.372622 48.958334 47 50 47 z M 38.082031 49.015625 C 37.836392 49.021256 37.593255 49.038858 37.351562 49.068359 C 34.451248 49.422382 31.897587 51.464179 31.042969 54.445312 C 30.743437 55.490466 30.680609 56.549729 30.824219 57.5625 A 0.50008468 0.50008468 0 1 0 31.814453 57.421875 C 31.690063 56.544646 31.743443 55.631503 32.003906 54.722656 C 32.994415 51.267502 36.585777 49.277045 40.041016 50.267578 C 43.49617 51.258087 45.486627 54.849447 44.496094 58.304688 C 43.698995 61.083836 41.216256 62.912328 38.482422 63.009766 A 0.50005 0.50005 0 1 0 38.517578 64.007812 C 41.675744 63.895252 44.54013 61.776928 45.457031 58.580078 C 46.596498 54.605317 44.291252 50.444178 40.316406 49.304688 C 39.571139 49.091037 38.81895 48.998732 38.082031 49.015625 z M 18.199219 53.130859 A 1.0001 1.0001 0 0 0 17.283203 53.904297 L 15.521484 61.537109 A 1.0001 1.0001 0 0 0 15.521484 61.539062 C 14.033995 67.985578 18.068163 74.441089 24.513672 75.929688 L 32.148438 77.693359 A 1.0001 1.0001 0 0 0 32.923828 75.884766 C 25.408717 70.92986 20.409535 62.926577 19.25 54 A 1.0001 1.0001 0 0 0 18.199219 53.130859 z M 56.513672 54.251953 C 52.377456 54.251953 49.013672 57.61574 49.013672 61.751953 C 49.013672 65.888166 52.377456 69.251953 56.513672 69.251953 C 60.649888 69.251953 64.013672 65.888166 64.013672 61.751953 C 64.013672 57.61574 60.649888 54.251953 56.513672 54.251953 z M 56.513672 55.251953 C 60.109448 55.251953 63.013672 58.15618 63.013672 61.751953 C 63.013672 65.347727 60.109448 68.251953 56.513672 68.251953 C 52.917896 68.251953 50.013672 65.347727 50.013672 61.751953 C 50.013672 58.15618 52.917896 55.251953 56.513672 55.251953 z M 18.283203 58.462891 C 19.984355 64.827688 23.513775 70.475427 28.488281 74.794922 L 24.964844 73.982422 C 19.572357 72.73702 16.22424 67.381767 17.46875 61.988281 L 18.283203 58.462891 z M 31.892578 59.001953 A 0.50005 0.50005 0 0 0 31.472656 59.722656 C 31.927818 60.683315 32.58467 61.546259 33.408203 62.242188 A 0.50028436 0.50028436 0 1 0 34.054688 61.478516 C 33.342219 60.876444 32.769838 60.12631 32.375 59.292969 A 0.50005 0.50005 0 0 0 31.892578 59.001953 z M 35.527344 62.458984 A 0.50005 0.50005 0 0 0 35.333984 63.423828 C 35.606179 63.538043 35.890436 63.638897 36.183594 63.722656 C 36.244884 63.740166 36.303375 63.754531 36.359375 63.769531 A 0.50005 0.50005 0 1 0 36.617188 62.804688 C 36.561188 62.789687 36.50774 62.774256 36.457031 62.759766 C 36.204189 62.687528 35.958509 62.599785 35.720703 62.5 A 0.50005 0.50005 0 0 0 35.527344 62.458984 z M 76.716797 66.626953 A 1.0001 1.0001 0 0 0 75.884766 67.076172 C 70.928837 74.591443 62.928375 79.591454 54.001953 80.75 A 1.0001 1.0001 0 0 0 53.904297 82.716797 L 61.539062 84.478516 C 67.984746 85.967154 74.443053 81.932881 75.931641 75.486328 L 77.695312 67.851562 A 1.0001 1.0001 0 0 0 76.716797 66.626953 z M 74.798828 71.509766 L 73.984375 75.035156 C 72.738962 80.428603 67.382551 83.776612 61.990234 82.53125 L 58.466797 81.716797 C 64.831211 80.015188 70.479636 76.48492 74.798828 71.509766 z"/></svg>